<?xml version="1.0" encoding="iso-8859-1"?>
<!-- Generator: Adobe Illustrator 19.0.0, SVG Export Plug-In . SVG Version: 6.00 Build 0)  -->
<svg version="1.1" id="Capa_1" xmlns="http://www.w3.org/2000/svg" xmlns:xlink="http://www.w3.org/1999/xlink" x="0px" y="0px"
	 viewBox="0 0 512.001 512.001" style="enable-background:new 0 0 512.001 512.001;" xml:space="preserve">
<g>
	<path style="fill:#3F5C6C;" d="M494.644,256.003c-2.302,0.001-4.509-0.913-6.137-2.541c-1.628-1.628-2.542-3.835-2.541-6.137
		v-34.712c0-4.793,3.885-8.678,8.678-8.678s8.678,3.885,8.678,8.678v34.712c0.001,2.302-0.913,4.509-2.541,6.137
		C499.153,255.089,496.946,256.004,494.644,256.003z"/>
	<path style="fill:#547580;" d="M234.305,238.647l-121.492-52.068H34.712c-9.574-0.028-17.328-7.782-17.356-17.356v-17.356
		L33.757,12.412c0.407-4.478,4.097-7.944,8.591-8.071h15.967c6.919,0.101,13.12,4.292,15.794,10.674l43.39,100.057
		c2.58,5.891,7.247,10.62,13.104,13.277l51.634,23.517h251.661c25.052-0.329,48.31,12.962,60.746,34.712
		c2.875,0.103,5.691,0.844,8.244,2.169c5.648,2.906,9.173,8.749,9.112,15.1c-0.01,5.698-2.879,11.01-7.637,14.145
		c-30.807,20.654-53.109,20.654-53.109,20.654H234.305z"/>
	<path style="fill:#BDC3C7;" d="M242.406,256.543l113.934,7.596c5.296,0.353,10.574-0.921,15.126-3.652l23.997-14.398
		c2.614-1.568,4.213-4.393,4.213-7.441c0-3.048-1.599-5.873-4.213-7.441l-23.997-14.398c-4.552-2.731-9.829-4.005-15.126-3.652
		l-113.934,7.596c-4.559,0.304-8.101,4.09-8.101,8.659v18.475C234.305,252.453,237.847,256.239,242.406,256.543z"/>
	<g>
		<path style="fill:#3F5C6C;" d="M240.256,336.284l83.703,6.45c3.952,0.283,7.879-0.813,11.113-3.102l17.629-12.226
			c1.953-1.515,3.095-3.847,3.095-6.319c0-2.471-1.143-4.804-3.095-6.319l-17.629-12.226c-3.234-2.288-7.161-3.385-11.113-3.101
			l-83.703,6.45c-3.587,0.542-6.169,3.731-5.951,7.353v15.688C234.088,332.553,236.669,335.742,240.256,336.284z"/>
		<path style="fill:#3F5C6C;" d="M188.189,423.063l83.703,6.45c3.951,0.283,7.879-0.813,11.113-3.102l17.629-12.226
			c1.953-1.515,3.095-3.847,3.095-6.319c0-2.471-1.143-4.804-3.095-6.319l-17.629-12.226c-3.234-2.288-7.161-3.385-11.113-3.101
			l-83.703,6.45c-3.587,0.542-6.169,3.731-5.951,7.353v15.688C182.02,419.332,184.601,422.521,188.189,423.063z"/>
		<path style="fill:#3F5C6C;" d="M118.765,501.165l83.703,6.45c3.951,0.283,7.879-0.813,11.113-3.102l17.629-12.226
			c1.953-1.515,3.095-3.847,3.095-6.319c0-2.471-1.143-4.804-3.095-6.319l-17.629-12.226c-3.234-2.288-7.161-3.385-11.113-3.101
			l-83.703,6.45c-3.587,0.542-6.169,3.731-5.951,7.353v15.688C112.596,497.434,115.177,500.623,118.765,501.165z"/>
		<path style="fill:#3F5C6C;" d="M95.458,160.545H8.678c-4.793,0-8.678-3.885-8.678-8.678c0-4.793,3.885-8.678,8.678-8.678h86.78
			c4.793,0,8.678,3.885,8.678,8.678C104.136,156.66,100.25,160.545,95.458,160.545z"/>
	</g>
	<path style="fill:#7F8C8D;" d="M399.186,195.257c-2.302,0.001-4.509-0.913-6.137-2.541c-1.628-1.628-2.542-3.835-2.541-6.137
		v-69.424c0-4.793,3.885-8.678,8.678-8.678c4.793,0,8.678,3.885,8.678,8.678v69.424c0.001,2.302-0.914,4.509-2.541,6.137
		C403.696,194.344,401.488,195.258,399.186,195.257z"/>
	<path style="fill:#BDC3C7;" d="M230.99,177.901h116.129c9.585,0,17.356-7.771,17.356-17.356v-17.356
		c0-9.585-7.771-17.356-17.356-17.356h-71.956c-19.722,0-37.751,11.143-46.571,28.782l-5.363,10.727
		c-1.345,2.69-1.201,5.885,0.38,8.443C225.19,176.344,227.983,177.901,230.99,177.901z"/>
</g>
<g>
</g>
<g>
</g>
<g>
</g>
<g>
</g>
<g>
</g>
<g>
</g>
<g>
</g>
<g>
</g>
<g>
</g>
<g>
</g>
<g>
</g>
<g>
</g>
<g>
</g>
<g>
</g>
<g>
</g>
</svg>
